<?xml version="1.0" encoding="UTF-8"?>
<!DOCTYPE svg PUBLIC "-//W3C//DTD SVG 1.1//EN" "http://www.w3.org/Graphics/SVG/1.1/DTD/svg11.dtd">
<svg xmlns="http://www.w3.org/2000/svg" version="1.1" width="43px" height="42px" style="shape-rendering:geometricPrecision; text-rendering:geometricPrecision; image-rendering:optimizeQuality; fill-rule:evenodd; clip-rule:evenodd" xmlns:xlink="http://www.w3.org/1999/xlink">
<g><path style="opacity:1" fill="#f1f1f1" d="M -0.5,-0.5 C 13.8333,-0.5 28.1667,-0.5 42.5,-0.5C 42.5,13.5 42.5,27.5 42.5,41.5C 28.1667,41.5 13.8333,41.5 -0.5,41.5C -0.5,27.5 -0.5,13.5 -0.5,-0.5 Z"/></g>
<g><path style="opacity:1" fill="#040404" d="M 5.5,4.5 C 15.1724,4.33353 24.8391,4.5002 34.5,5C 35.3081,5.30762 35.9747,5.80762 36.5,6.5C 37.6415,16.4527 37.8082,26.4527 37,36.5C 36.6258,37.4162 36.1258,38.2496 35.5,39C 24.9231,39.8191 14.4231,39.6524 4,38.5C 2.38285,28.2659 2.04952,17.9325 3,7.5C 3.69794,6.30943 4.53128,5.30943 5.5,4.5 Z"/></g>
<g><path style="opacity:1" fill="#717171" d="M 14.5,10.5 C 17.5184,10.3354 20.5184,10.502 23.5,11C 24.056,11.3826 24.3893,11.8826 24.5,12.5C 24.5,12.8333 24.5,13.1667 24.5,13.5C 22.283,12.6314 19.9496,12.298 17.5,12.5C 17.1667,11.1667 16.8333,11.1667 16.5,12.5C 15.8333,12.5 15.1667,12.5 14.5,12.5C 14.5,11.8333 14.5,11.1667 14.5,10.5 Z"/></g>
<g><path style="opacity:1" fill="#f0f0f0" d="M 17.5,12.5 C 19.9496,12.298 22.283,12.6314 24.5,13.5C 24.5408,17.2434 23.8741,17.4101 22.5,14C 20.6183,13.8019 18.9516,13.3019 17.5,12.5 Z"/></g>
<g><path style="opacity:1" fill="#cfcfcf" d="M 14.5,10.5 C 17.6399,9.35916 20.9733,9.1925 24.5,10C 27.4629,12.2706 28.1295,15.1039 26.5,18.5C 25.8313,16.3691 25.1646,14.3691 24.5,12.5C 24.3893,11.8826 24.056,11.3826 23.5,11C 20.5184,10.502 17.5184,10.3354 14.5,10.5 Z"/></g>
<g><path style="opacity:1" fill="#525252" d="M 12.5,16.5 C 14.4123,17.7992 16.4123,18.7992 18.5,19.5C 16.076,19.8076 13.7427,19.4742 11.5,18.5C 11.8627,17.8165 12.1961,17.1499 12.5,16.5 Z"/></g>
<g><path style="opacity:1" fill="#e6e6e6" d="M 14.5,12.5 C 15.1667,12.5 15.8333,12.5 16.5,12.5C 17.6782,13.9986 19.3449,14.9986 21.5,15.5C 19.5767,16.3078 17.5767,16.8078 15.5,17C 18.5,17.3333 21.5,17.6667 24.5,18C 23.2625,18.2321 22.2625,18.7321 21.5,19.5C 20.5,19.5 19.5,19.5 18.5,19.5C 16.4123,18.7992 14.4123,17.7992 12.5,16.5C 12.3367,14.1432 12.5034,11.8098 13,9.5C 13.3333,11.5 13.6667,13.5 14,15.5C 14.4828,14.552 14.6495,13.552 14.5,12.5 Z"/></g>
<g><path style="opacity:1" fill="#818181" d="M 18.5,19.5 C 19.5,19.5 20.5,19.5 21.5,19.5C 20.6352,24.2665 20.6352,28.9332 21.5,33.5C 17.247,33.434 16.5803,31.934 19.5,29C 18.8214,25.755 18.4881,22.5883 18.5,19.5 Z"/></g>
</svg>
